<svg width="152" height="43" viewBox="0 0 152 43" fill="none" xmlns="http://www.w3.org/2000/svg">
                <path d="M7.8127 0.149675C4.70573 1.4389 1.29013 5.08112 0.211376 9.6529C-1.15479 15.4455 4.53045 17.895 4.99676 17.0919C5.54559 16.1481 3.97803 15.829 3.65536 12.8235C3.23833 8.9417 5.05882 4.60419 7.34996 2.70101C7.77585 2.34742 7.75559 2.83956 7.75559 3.74987C7.75559 5.37772 7.66485 19.991 7.66485 23.0408C7.66485 27.1675 7.49291 28.4707 7.18409 29.7584C6.8712 31.0633 6.36817 31.9451 6.74934 32.2847C7.1752 32.6646 8.99349 31.7609 10.0461 30.3046C11.3084 28.5579 11.7502 26.4602 11.8296 24.1821C11.9254 21.436 11.9213 17.0785 11.9254 14.5931C11.9292 12.3135 11.9641 5.63843 11.8851 1.62563C11.8657 0.641376 9.11205 -0.391255 7.81255 0.148478M118.141 19.4626C118.041 21.608 117.562 23.2849 116.967 24.4678C115.816 26.7577 113.428 27.4687 112.414 24.1769C111.861 22.3825 111.835 19.3858 112.233 16.8818C112.637 14.331 113.766 12.4045 115.636 12.5782C117.481 12.75 118.344 15.1061 118.141 19.4626ZM87.046 32.7732C87.021 36.338 86.455 39.4635 85.2413 40.3713C83.52 41.6585 81.2064 40.6929 81.6855 38.0917C82.1094 35.7899 84.1141 33.4391 87.0508 30.5669C87.0508 30.5669 87.0569 31.2219 87.046 32.7732ZM86.5759 19.4419C86.4706 21.3959 85.9596 23.3589 85.4021 24.468C84.2513 26.7579 81.8454 27.4738 80.8484 24.1772C80.1667 21.9248 80.33 19.0096 80.6673 17.1728C81.1049 14.7897 82.1658 12.5788 84.0711 12.5788C85.9235 12.5788 86.837 14.5932 86.5759 19.4419ZM68.5624 19.412C68.4495 21.4815 68.0422 23.2115 67.3886 24.468C66.2061 26.7421 63.8667 27.4634 62.835 24.1772C62.0912 21.8076 62.3444 18.5765 62.6538 16.8311C63.113 14.2411 64.2627 12.4047 66.0577 12.5788C67.9014 12.7573 68.7977 15.1061 68.5624 19.412ZM151.114 21.8293C150.663 21.8293 150.458 22.2898 150.287 23.065C149.697 25.7605 149.077 26.3691 148.277 26.3691C147.383 26.3691 146.58 25.0344 146.374 22.3627C146.211 20.2618 146.237 16.394 146.445 12.5466C146.487 11.7561 146.267 10.974 144.128 10.2037C143.208 9.87243 141.87 9.3846 141.204 10.9785C139.322 15.4817 138.586 19.0568 138.412 20.5091C138.403 20.5843 138.311 20.5996 138.294 20.424C138.184 19.2608 137.937 17.147 137.906 12.7059C137.9 11.8394 137.715 11.1019 136.75 10.498C136.124 10.1062 134.223 9.41324 133.539 10.2377C132.946 10.9119 132.259 12.7264 131.545 14.8773C130.965 16.6255 130.562 17.8081 130.562 17.8081C130.562 17.8081 130.569 13.0912 130.576 11.302C130.579 10.627 130.112 10.4021 129.971 10.3613C129.337 10.1789 128.088 9.87422 127.558 9.87422C126.904 9.87422 126.744 10.2367 126.744 10.7648C126.744 10.8339 126.641 16.975 126.641 21.2692C126.641 21.4557 126.641 21.6593 126.643 21.8754C126.281 23.8491 125.108 26.5283 123.832 26.5283C122.554 26.5283 121.951 25.4082 121.951 20.2889C121.951 17.3024 122.042 16.0038 122.086 13.8438C122.112 12.5997 122.162 11.6443 122.159 11.4274C122.15 10.7626 120.99 10.4275 120.45 10.3036C119.908 10.1787 119.437 10.1304 119.069 10.1511C118.548 10.1803 118.18 10.5189 118.18 10.9847C118.18 11.2344 118.183 11.7093 118.183 11.7093C117.512 10.6646 116.433 9.93737 115.716 9.72664C113.782 9.15752 111.765 9.6618 110.244 11.7724C109.034 13.4494 108.305 15.3488 108.018 18.0777C107.809 20.0727 107.877 22.0958 108.25 23.8067C107.799 25.7373 106.963 26.5283 106.047 26.5283C104.718 26.5283 103.754 24.3772 103.866 20.6571C103.94 18.2103 104.434 16.4931 104.974 14.0089C105.204 12.9499 105.017 12.3955 104.548 11.8641C104.118 11.3768 103.201 11.1278 101.883 11.434C100.944 11.6524 99.602 11.8872 98.3741 12.0675C98.3741 12.0675 98.4482 11.7744 98.509 11.2578C98.8284 8.54811 95.8581 8.76796 94.9104 9.63343C94.3447 10.1501 93.9597 10.7595 93.8135 11.8553C93.5818 13.5941 95.0124 14.4142 95.0124 14.4142C94.543 16.5441 93.3925 19.3264 92.2046 21.338C91.5684 22.4157 91.0817 23.2143 90.4534 24.0633C90.4511 23.7472 90.4493 23.4311 90.4482 23.1165C90.4338 18.6386 90.4939 15.1144 90.5205 13.8442C90.5463 12.6001 90.5966 11.67 90.5938 11.4532C90.5867 10.9669 90.3002 10.7833 89.7044 10.5507C89.1776 10.3451 88.5546 10.2027 87.9085 10.1531C87.0929 10.09 86.6015 10.5188 86.6143 11.0259C86.6168 11.1217 86.6168 11.7095 86.6168 11.7095C85.9461 10.6647 84.8673 9.93756 84.1496 9.72681C82.2165 9.15794 80.1992 9.66223 78.6777 11.7726C77.4686 13.4496 76.6768 15.8029 76.4525 18.0571C76.2435 20.1581 76.2821 21.9435 76.567 23.4475C76.2596 24.9535 75.3758 26.5285 74.3765 26.5285C73.099 26.5285 72.3721 25.4083 72.3721 20.289C72.3721 17.3026 72.4625 16.004 72.507 13.8442C72.5328 12.6001 72.5826 11.6444 72.5798 11.4279C72.5704 10.763 71.4106 10.4279 70.871 10.3038C70.3063 10.1744 69.8188 10.1268 69.4445 10.1541C68.9506 10.1906 68.6033 10.629 68.6033 10.956V11.7095C67.9326 10.6647 66.8539 9.93756 66.1362 9.72681C64.203 9.15794 62.197 9.67035 60.6643 11.7726C59.6647 13.1434 58.8555 14.6631 58.439 18.0272C58.3187 18.9994 58.2655 19.9098 58.2724 20.7607C57.8739 23.1771 56.1134 25.9621 54.6734 25.9621C53.8307 25.9621 53.0282 24.3419 53.0282 20.8888C53.0282 16.2892 53.3154 9.74025 53.3639 9.10907C53.3639 9.10907 55.1834 9.07842 55.5357 9.07435C56.4433 9.06448 57.2653 9.08575 58.474 9.02446C59.0804 8.99381 59.6644 6.83684 59.0387 6.56989C58.7551 6.44907 56.7506 6.3432 55.956 6.32648C55.2879 6.31147 53.4278 6.17501 53.4278 6.17501C53.4278 6.17501 53.5946 1.82813 53.6335 1.36894C53.6664 0.986226 53.1669 0.789177 52.8805 0.66961C52.184 0.37758 51.5608 0.237759 50.8222 0.0868037C49.8016 -0.121892 49.3387 0.0822442 49.2482 0.936066C49.112 2.23189 49.0415 6.02734 49.0415 6.02734C48.2926 6.02734 45.7345 5.88222 44.9854 5.88222C44.2894 5.88222 43.5382 8.84945 44.5004 8.88591C45.6075 8.92847 47.5368 8.9652 48.8159 9.00345C48.8159 9.00345 48.7589 15.6603 48.7589 17.7154C48.7589 17.9341 48.7609 18.1446 48.7612 18.3489C48.0573 21.9861 45.5779 23.9508 45.5779 23.9508C46.1103 21.5446 45.0227 19.7377 43.0634 18.2081C42.3416 17.6445 40.9167 16.5774 39.3223 15.408C39.3223 15.408 40.2457 14.5058 41.0646 12.6908C41.6449 11.4051 41.6699 9.9338 40.2457 9.60936C37.8925 9.07289 35.9522 10.7861 35.3734 12.6151C34.925 14.0319 35.1642 15.0833 36.0426 16.1755C36.1068 16.2553 36.1763 16.3368 36.2481 16.4189C35.7169 17.4339 34.9871 18.8003 34.3691 19.86C32.6536 22.8022 31.3577 25.1294 30.3783 25.1294C29.5954 25.1294 29.6059 22.7667 29.6059 20.5545C29.6059 18.6475 29.748 15.7804 29.8614 12.8119C29.899 11.8302 29.4038 11.2709 28.5737 10.7643C28.0693 10.4566 26.9928 9.85149 26.3694 9.85149C25.4363 9.85149 22.744 9.97737 20.2002 17.2717C19.8796 18.1911 19.2498 19.8664 19.2498 19.8664L19.304 11.0946C19.304 10.8889 19.1935 10.6901 18.9405 10.5541C18.5119 10.3234 17.367 9.85149 16.3489 9.85149C15.8639 9.85149 15.6218 10.0751 15.6218 10.5209L15.533 24.2444C15.533 25.2871 15.5605 26.5035 15.6645 27.0356C15.7681 27.5683 15.9359 28.0016 16.1438 28.2595C16.3514 28.5168 16.5916 28.7131 16.9875 28.7941C17.356 28.8693 19.3738 29.1262 19.4787 28.3618C19.6043 27.4457 19.6092 26.4548 20.6687 22.7594C22.3182 17.006 24.4689 14.1989 25.4799 13.2019C25.6567 13.0277 25.8585 13.0173 25.8488 13.3025C25.8056 14.5639 25.6538 17.7157 25.5517 20.3935C25.2778 27.5594 26.5928 28.8876 28.4721 28.8876C29.9098 28.8876 31.9365 27.4715 34.1091 23.8868C35.4635 21.6528 36.7786 19.4624 37.7235 17.8836C38.3819 18.4879 39.1208 19.1382 39.8593 19.833C41.5752 21.4474 42.1386 22.9815 41.7648 24.4369C41.4789 25.5495 40.4022 26.6961 38.4859 25.5816C37.9274 25.2565 37.689 25.0053 37.1274 24.6388C36.8256 24.4418 36.3649 24.383 36.0888 24.5893C35.3713 25.1255 34.9609 25.8076 34.7267 26.6521C34.4987 27.4737 35.3289 27.9081 36.1894 28.288C36.9304 28.615 38.523 28.9113 39.5386 28.9451C43.4959 29.0763 46.666 27.051 48.8727 21.8268C49.2678 26.3385 50.949 28.8916 53.87 28.8916C55.8228 28.8916 57.7807 26.3894 58.6369 23.9278C58.8827 24.9312 59.2466 25.8038 59.7164 26.5416C61.9672 30.0767 66.3335 29.3159 68.5268 26.314C69.2049 25.3864 69.3082 25.0531 69.3082 25.0531C69.628 27.8876 71.9307 28.878 73.2491 28.878C74.7257 28.878 76.2503 28.186 77.3188 25.8013C77.444 26.0601 77.5807 26.3073 77.7299 26.5416C79.9807 30.0767 84.347 29.3158 86.5403 26.3139C86.6437 26.1731 86.7334 26.0454 86.8119 25.9307L86.8763 27.7926C86.8763 27.7926 85.625 28.9304 84.857 29.6284C81.4766 32.7028 78.9063 35.0353 78.7172 37.7515C78.4744 41.2149 81.308 42.5021 83.4517 42.6708C85.7283 42.8499 87.6778 41.6032 88.8761 39.8585C89.9301 38.3229 90.6199 35.0178 90.5694 31.7534C90.5492 30.4463 90.516 28.7842 90.4899 27.0026C91.678 25.6348 93.0166 23.9062 94.2492 21.8827C95.5924 19.6775 97.0319 16.7162 97.769 14.4115C97.769 14.4115 99.0197 14.4222 100.354 14.3356C100.781 14.308 100.904 14.3943 100.825 14.7046C100.73 15.0795 99.1388 21.1629 100.591 25.2154C101.585 27.9896 103.825 28.8822 105.154 28.8822C106.709 28.8822 108.196 27.7181 108.993 25.9894C109.089 26.1822 109.19 26.3686 109.299 26.5408C111.55 30.0759 115.901 29.3105 118.11 26.3132C118.608 25.6369 118.891 25.0523 118.891 25.0523C119.365 27.9858 121.667 28.8921 122.985 28.8921C124.358 28.8921 125.661 28.3341 126.718 25.8542C126.762 26.9461 126.832 27.8389 126.942 28.1204C127.009 28.2925 127.399 28.5086 127.683 28.613C128.939 29.0747 130.22 28.8564 130.694 28.7614C131.022 28.6955 131.278 28.4344 131.313 27.7602C131.405 25.9897 131.349 23.0151 131.89 20.8044C132.799 17.0943 133.647 15.6552 134.049 14.9427C134.274 14.5435 134.528 14.4777 134.537 14.9001C134.556 15.755 134.599 18.2653 134.951 21.638C135.21 24.1185 135.555 25.5847 135.821 26.0487C136.578 27.3757 137.514 27.4385 138.276 27.4385C138.76 27.4385 139.774 27.3057 139.683 26.4613C139.639 26.0497 139.717 23.506 140.613 19.8508C141.198 17.4639 142.173 15.3071 142.525 14.5187C142.655 14.2279 142.715 14.4571 142.713 14.5018C142.639 16.1456 142.473 21.5223 143.148 24.4629C144.064 28.4466 146.713 28.8924 147.636 28.8924C149.607 28.8924 151.219 27.4063 151.762 23.4962C151.892 22.5552 151.699 21.8286 151.118 21.8286" fill="black"/>
                </svg>