<?xml version="1.0" encoding="UTF-8"?>
<svg id="Camada_2" data-name="Camada 2" xmlns="http://www.w3.org/2000/svg" viewBox="0 0 353.37 192.66">
  <g id="Camada_1-2" data-name="Camada 1">
    <g>
      <path d="M353.37,0v139.28H0V0h353.37ZM128.46,11.29H11.29v117.16h117.16V11.29ZM149.87,48.35v29.06h10.12v-27.64c0-.33.74-1.95.98-2.31,1.99-3.03,7.46-2.68,8.85.72.29.71.76,2.55.76,3.24v26h10.12v-27.64c0-.33.74-1.95.98-2.31,2.18-3.31,7.98-2.59,9.12,1.39.14.48.49,2.18.49,2.57v26h10.12c-.38-8.62.51-17.67.01-26.24-.22-3.78-1.05-7.64-3.54-10.58-5.27-6.24-17.41-6.33-22.1.68l-.49.15c-4.4-7.19-16.66-7.02-22-.94-1.64,1.87-3.14,5.42-3.41,7.88ZM241.39,36.94h-11.41l-8,13.88-8-13.88h-11.88l14.82,23.64v16.82h10.12v-17.06l14.35-23.41ZM204.64,83.83c-28.02,1.85-26.18,43.89,2.98,42.51,28.44-1.34,26.78-44.47-2.98-42.51ZM252.16,83.83c-28.04,1.85-26.16,43.89,2.98,42.51,28.46-1.34,26.76-44.47-2.98-42.51ZM280.91,96.34v29.06h10.12v-27.64c0-.14.54-1.67.66-1.92,2.22-4.6,9.92-2.79,9.92,2.63v26.94h10.12v-27.41c0-.27.69-2.06.89-2.4,1.83-3.17,7.37-3.13,8.93.11.13.26.77,2.16.77,2.29v27.41h10.12v-28.59c0-11.78-15.53-16.97-23.87-9.76-.52.45-1.65,2.14-2.12,2.11-4.45-7.1-16.81-6.98-22.09-.92-1.66,1.9-3.18,5.6-3.44,8.09ZM167.63,84.7c-6.16-.57-13.16.43-19.41,0v40.7h10.12v-12.7h4.23l7.18,12.7h11.88l-8.95-14.23c9.31-3.46,10.12-18.75,2.1-23.98-1.82-1.19-5-2.29-7.15-2.49Z"/>
      <path d="M266.32,177.86h-5.76c-.22,0-1.78-2.14-3.64-2.48-9.71-1.76-10.21,12.94-.87,12.34,1.88-.12,4.35-1.3,4.86-3.27h-6.82v-4.23h12.7v3.41c0,3.15-4.13,7.31-7.01,8.29-9.59,3.25-18.61-4.62-15.22-14.52s18.99-9.44,21.76.46Z"/>
      <path d="M27.06,192.21v-21.41h10.47c.82,0,3.48,1.12,4.28,1.6,8,4.77,4.83,19.81-4.99,19.81h-9.76ZM32.47,187.27h3.88c2.68,0,4.61-3.32,4.61-5.76,0-5.34-4.03-6.12-8.49-6v11.76Z"/>
      <polygon points="102.58 170.81 102.58 175.51 91.99 175.51 91.99 179.04 100.7 179.04 100.7 183.27 91.99 183.27 91.99 187.27 102.58 187.27 102.58 192.21 86.58 192.21 86.58 170.81 102.58 170.81"/>
      <path d="M324.91,192.21h-5.41v-14c0-.32-.85-1.83-1.17-2.13-1.9-1.81-6.6-.7-6.6,2.13v14h-5.41v-14c0-10.57,18.59-10.57,18.59,0v14Z"/>
      <path d="M157.87,177.16h-4.94c-.05,0-.03-.65-.27-1.02-1.61-2.53-5.78-1.1-5.1,1.32.57,2.04,7.5,1.36,9.66,4.47,1.26,1.81,1.19,5.03.27,6.98-2.81,5.94-15.92,4.76-15.39-3.03h5.18c-.25,3.68,7.76,2.32,5.31-.96-1.3-1.74-7.59-.53-9.5-4.38s-.21-8.27,3.66-9.67c4.96-1.79,11.01.45,11.12,6.3Z"/>
      <rect x="198.33" y="170.81" width="5.41" height="21.41"/>
      <path d="M20.7,31.76c6.06,0,12.72,2.8,16.24,7.76l.47-.11c8.44-10.2,24.47-10.18,32.84.1,2.92-3.06,6.36-5.68,10.5-6.87,22.52-6.48,37.37,22.27,19.48,36.88,11.72,8.98,7.05,25.03,7.99,37.76h-9.41v-22c0-3.42-2.95-7.74-5.87-9.42-7.98-4.59-17.88,1.08-17.89,10.24h-9.41c-.16-8.81,5.8-17.25,14.13-20.1,5.97-2.04,11.64.11,16.21-5.43,8.58-10.38-4.06-24.77-15.59-17.48-2.23,1.41-5.34,5.64-5.34,8.31v14.94h-9.41v-14.7c0-5.08-5.87-10.06-10.71-10.46-6.24-.52-13.05,4.58-13.05,11.17v54.94h-9.41v-56.35c0-.66-1.26-3.49-1.69-4.19-2.07-3.36-6.1-5.63-10.07-5.58v-9.41Z"/>
      <path d="M118.73,39.68c-4.08,4.4-11.12-1.87-6.83-6.48s11.11,1.87,6.83,6.48Z"/>
      <path d="M205.82,93.23c14.62-.54,15.98,20.82,3.11,23.36-16.98,3.35-19.07-22.77-3.11-23.36Z"/>
      <path d="M253.34,93.23c14.61-.54,15.98,20.82,3.11,23.36-16.99,3.35-19.07-22.77-3.11-23.36Z"/>
      <path d="M158.34,103.28v-9.18h7.88c.12,0,1.52.5,1.74.61,2.51,1.3,2.64,6.04.38,7.62-.47.33-2.11.94-2.59.94h-7.41Z"/>
    </g>
  </g>
</svg>